<svg width="527" height="527" viewBox="0 0 527 527" fill="none" xmlns="http://www.w3.org/2000/svg">
<circle opacity="0.45" cx="263.438" cy="263.438" r="189.971" transform="rotate(33.6854 263.438 263.438)" fill="#DDEAEF"/>
<path d="M346.629 62.4038C348.132 59.3068 351.24 57.5648 354.314 56.7564C362.945 54.4678 369.378 57.4965 374.137 64.1686C376.562 67.573 377.359 71.8541 376.585 75.9986C375.617 81.1792 371.37 84.2989 367.932 87.8741C365.176 90.7548 362.854 95.2067 362.523 95.1384C359.609 94.478 357.183 93.7265 354.257 93.1117C352.105 92.6562 348.029 91.2557 348.029 91.2557C348.029 91.2557 347.744 88.5687 347.414 86.2232C347.004 83.149 341.198 73.6303 346.629 62.4038Z" fill="#FEDD1B"/>
<path d="M356.557 94.0906C356.774 90.0144 357.161 85.9041 358.857 82.1467C359.7 80.2794 361.157 77.0344 363.514 76.7612C365.7 76.5107 366.634 79.6874 365.803 81.2358C364.698 83.3081 361.077 83.9571 358.982 83.8546C355.977 83.6952 352.891 82.3175 351.923 79.3002C351.365 77.5696 352.845 73.2543 355.293 74.0627C358.277 75.0533 357.263 79.4255 357.001 81.7368C356.58 85.5284 356.136 89.7298 354.178 93.0772C353.847 93.6351 353.028 93.0772 353.346 92.5193C355.669 88.557 356.045 83.069 356.307 78.5487C356.364 77.6151 356.238 73.8577 354.109 75.3151C352.971 76.0894 352.629 77.8656 352.891 79.0953C353.472 81.9076 357.07 82.7502 359.472 82.8868C361.203 82.9779 363.332 82.2492 364.618 81.1106C365.666 80.1883 365.017 77.5923 363.446 77.7745C362.523 77.8884 361.761 79.0953 361.294 79.7557C358.345 83.9457 357.81 89.1832 357.536 94.1589C357.525 94.7965 356.523 94.7282 356.557 94.0906Z" fill="#FFAE0D"/>
<path d="M345.615 96.1748C344.989 95.8332 344.488 95.3436 344.67 94.6718C344.978 93.5105 345.991 93.408 346.97 93.4877C346.207 92.8501 345.604 91.9506 346.378 91.0739C347.107 90.2541 348.929 90.9486 349.691 91.108C351.65 91.5179 353.574 92.1556 355.521 92.6793C357.98 93.3397 360.975 93.6016 362.956 95.5144C364.288 96.801 363.525 97.8258 362.216 98.0193C362.797 98.9416 363.913 99.9094 363.252 101.105C362.728 102.05 361.897 102.107 361.043 102.016C361.874 102.722 362.751 103.792 362.011 104.418C361.282 105.022 360.747 104.828 359.905 104.566C358.55 104.145 357.195 103.712 355.851 103.28C355.054 105.602 353.927 107.754 351.456 108.13C349.543 108.415 349.099 105.967 349.065 104.35C349.042 103.416 349.088 102.164 349.452 101.196C348.894 101.025 348.348 100.843 347.79 100.672C346.344 100.24 344.875 99.6589 343.953 98.2926C342.951 96.7897 344.317 96.3114 345.615 96.1748Z" fill="#064D67"/>
<path fill-rule="evenodd" clip-rule="evenodd" d="M280.966 128.682C280.966 128.682 269.102 138.531 268.908 139.51L271.88 145.681C265.697 147.275 267.758 151.443 267.815 158.456C267.815 164.332 267.701 170.093 267.815 176.082C268.043 187.832 266.551 200.152 268.669 211.663C274.1 213.599 291.714 216.047 298.238 215.136C297.487 205.503 292.397 191.703 293.434 181.661L321.693 181.376C323.185 168.203 321.295 151.784 316.49 141.343C310.547 128.341 297.02 124.458 280.613 126.576L280.966 128.682Z" fill="#A3C4DA"/>
<path fill-rule="evenodd" clip-rule="evenodd" d="M218.97 184.063C218.571 176.708 220.86 147.799 222.909 141.639C227.031 129.319 246.865 129.262 260.312 128.352L262.099 138.679L260.961 144.155C265.14 149.279 264.046 151.966 263.99 160.118C263.99 172.836 265.014 201.575 263.249 211.048C255.234 209.385 247.856 207.677 239.908 206.197C230.299 204.364 231.562 199.24 225.437 192.682C225.437 192.682 224.173 194.561 221.03 192.284L218.97 184.063Z" fill="#A3C4DA"/>
<path fill-rule="evenodd" clip-rule="evenodd" d="M260.312 132.03L262.099 138.668C265.31 141.128 264.673 140.49 266.449 143.633L269.079 139.238L280.977 128.694L281.08 128.353C279.645 123.388 278.632 115.657 276.047 107.915C266.95 80.6798 290.177 90.1188 285.828 79.9056C284.222 78.9378 280.454 77.3665 277.482 77.0819C274.624 76.7972 275.159 78.5165 273.098 79.4274L273.725 79.9967C270.981 83.5263 275.683 73.9166 271.675 75.5675C269.626 76.4215 248.129 72.926 248.391 74.9186C247.184 80.8506 241.229 110.021 255.109 109.281L260.312 132.03Z" fill="#E0AC92"/>
<path fill-rule="evenodd" clip-rule="evenodd" d="M241.161 74.7357C243.905 75.5897 267.587 78.2198 267.587 78.2198C267.587 78.2198 267.815 92.532 264.274 98.7828C263.158 100.753 245.931 92.5433 246.068 94.8205C246.615 104.294 246.068 112.56 251.727 113.71C262.657 115.93 267.155 112.127 268.908 108.108C271.857 101.367 271.857 81.9544 273.702 79.9846C274.783 78.8233 279.144 78.1401 280.055 80.2124C284.507 90.38 265.823 86.0761 277.379 112.366C279.839 87.3286 293.035 84.3227 290.519 71.32C285.999 47.7397 259.674 65.5586 255.849 63.1107C230.503 46.8174 227.031 65.718 229.763 69.4413C231.209 71.3882 237.267 73.5402 241.161 74.7357Z" fill="#030744"/>
<path fill-rule="evenodd" clip-rule="evenodd" d="M85.5604 310.709L84.2397 298.742C78.0115 296.123 75.7799 294.233 71.3166 288.13C66.3979 281.458 65.1568 278.373 58.7921 276.152C56.2985 279.238 55.7748 277.177 57.5396 285.216L61.9118 311.87C70.383 312.849 80.0496 312.986 85.5604 310.709Z" fill="#1D212E"/>
<path fill-rule="evenodd" clip-rule="evenodd" d="M204.487 413.751C210.1 436.261 201.515 433.392 201.287 453.579C207.401 452.896 204.202 456.972 212.958 444.243C217.136 438.083 218.89 434.474 223.922 430.158C224.093 418.932 215.03 416.803 211.66 408.115C207.72 413.455 209.815 409.914 204.487 413.751Z" fill="#1D212E"/>
<path fill-rule="evenodd" clip-rule="evenodd" d="M84.2511 298.743L85.5719 310.71C94.5554 309.742 103.915 309.286 110.086 305.472C108.902 302.728 108.731 302.569 107.285 299.95C105.452 296.477 105.645 293.676 101.319 294.416L84.2511 298.743Z" fill="#E0AC92"/>
<path fill-rule="evenodd" clip-rule="evenodd" d="M263.238 211.025L268.669 211.663C266.551 200.14 268.043 187.821 267.815 176.07C267.701 170.081 267.815 164.32 267.815 158.445C267.758 151.431 265.697 147.264 271.88 145.67L271.766 139.339L269.079 139.226L266.449 143.621C264.673 140.478 265.31 141.116 262.099 138.656L260.961 144.133C265.14 149.257 264.046 151.944 263.99 160.096C263.978 172.825 265.003 201.564 263.238 211.025Z" fill="#4680A6"/>
<path fill-rule="evenodd" clip-rule="evenodd" d="M224.07 227.547C234.534 228.515 285.725 238.546 298.489 238.204L265.436 225.099C253.139 221.785 235.115 216.058 224.07 214.111L226.61 224.564C225.118 227.239 231.198 227.683 226.735 227.854L224.07 227.547Z" fill="#A3C4DA"/>
<path fill-rule="evenodd" clip-rule="evenodd" d="M201.515 403.904L204.498 413.753C209.815 409.916 207.72 413.457 211.671 408.117L208.847 396.355C203.063 397.653 204.942 399.657 201.515 403.904Z" fill="#E0AC92"/>
<path fill-rule="evenodd" clip-rule="evenodd" d="M157.212 284.192L201.515 403.892C204.213 402.526 206.377 397.448 208.836 396.354C212.263 392.108 212.275 337.922 211.66 330.122C209.861 307.533 201.515 305.472 198.543 294.758L218.116 294.621C218.116 294.621 280.226 292.093 273.599 292.162C266.05 292.162 241.981 282.563 235.57 280.241C232.997 279.352 231.209 278.92 228.636 277.963L219.095 275.47L181.043 263.082L157.212 284.192Z" fill="#1D212E"/>
<path fill-rule="evenodd" clip-rule="evenodd" d="M174.109 225.463C174.109 225.463 103.436 290.613 94.7147 296.078C94.7147 296.078 95.8647 309.377 98.8364 309.161C111.862 308.182 146.874 295.771 166.298 284.932C179.95 277.326 181.851 264.915 181.851 264.915L207.629 273.705L238.383 271.303C237.073 267.659 243.039 268.798 231.562 268.627L243.096 262.923C254.05 259.734 246.831 266.634 253.458 257.844C257.989 257.674 263.295 258.129 267.428 256.82C268.419 256.478 271.823 254.36 271.891 254.315L297.145 246.105C295.768 242.747 295.244 244.113 295.437 241.938L296.622 239.263C296.69 238.75 297.02 238.522 297.145 238.181C297.145 238.181 229.205 224.745 217.205 223.778C203.314 222.582 186.576 222.833 174.109 225.463Z" fill="#212D4C"/>
<path fill-rule="evenodd" clip-rule="evenodd" d="M207.629 273.706C207.629 273.706 266.05 292.379 273.588 292.162C286.887 291.764 303.396 279.012 308.144 271.372C315.465 259.564 313.177 251.754 316.729 238.523L297.168 238.182C297.054 238.523 296.77 238.751 296.713 239.263L295.688 241.939C295.517 244.102 288.765 241.654 289.972 245.025L272.78 248.099C272.723 248.156 266.756 248.008 265.902 248.349C262.293 249.659 248.596 250.877 244.656 251.048C238.884 259.826 244.633 254.111 235.081 257.31L227.589 263.333C237.597 263.504 227.714 258.665 228.853 262.32L207.629 273.706Z" fill="#1D212E"/>
<path fill-rule="evenodd" clip-rule="evenodd" d="M189.844 225.463C203.997 226.875 214.586 226.977 226.735 227.854C229.797 228.07 228.591 227.034 228.625 225.577L225.607 214.771C211.534 207.701 214.495 217.413 211.466 200.14L222.397 199.742L221.019 192.273L217.865 176.811L179.938 178.291L189.844 225.463Z" fill="#030744"/>
<path fill-rule="evenodd" clip-rule="evenodd" d="M188.171 196.007C187.374 195.073 183.901 195.096 182.808 195.734C177.434 198.91 183.161 210.581 187.328 213.405C188.205 213.997 191.598 207.769 191.985 204.581C192.372 201.347 190.14 198.296 188.171 196.007Z" fill="#E0AC92"/>
<path fill-rule="evenodd" clip-rule="evenodd" d="M239.897 206.187C230.287 204.354 231.551 199.23 225.425 192.672L221.019 192.274L222.397 199.743L211.466 200.141C214.495 217.414 213.128 208.464 227.201 215.546C238.246 217.482 295.768 248.258 316.718 238.523C320.156 236.918 321.693 181.389 321.693 181.389L293.433 181.673C292.397 191.704 297.498 205.504 298.238 215.148C291.726 216.047 247.844 207.667 239.897 206.187Z" fill="#E0AC92"/>
<path fill-rule="evenodd" clip-rule="evenodd" d="M189.526 225.27C203.667 226.682 207.094 226.5 219.254 227.376C222.317 227.593 223.444 226.944 223.478 225.486L220.552 212.893C211.796 207.576 214.893 216.036 211.478 200.13L216.886 199.936L212.73 178.645L179.893 179.362L189.526 225.27Z" fill="#4680A6"/>
<path d="M311.298 262.01C309.681 265.62 304.546 264.458 301.461 264.094C296.531 263.513 290.223 267.168 285.794 264.048C284.86 263.388 285.019 261.521 285.042 260.519C285.122 256.568 280.784 261.771 280.089 262.386C279.269 263.103 275.079 266.303 274.67 263.969C274.43 262.58 278.393 258.116 279.634 256.818C282.776 253.539 286.853 250.613 291.589 251.592C294.367 252.161 296.553 254.336 299.468 254.598C302.747 254.883 306.015 254.313 309.237 253.858C309.533 253.812 309.567 253.664 309.636 253.881C309.761 253.892 309.875 253.938 309.989 254.052C311.253 255.418 312.05 260.314 311.298 262.01Z" fill="#E0AC92"/>
<path fill-rule="evenodd" clip-rule="evenodd" d="M337.782 423.827L329.003 425.9C326.282 418.351 322.741 412.032 323.014 405.86C325.314 405.94 325.906 405.303 328.229 405.633C331.28 406.02 331.224 407.261 332.351 410.996L337.782 423.827Z" fill="#E0AC92"/>
<path fill-rule="evenodd" clip-rule="evenodd" d="M327.648 421.995C330.256 447.192 321.101 442.547 317.754 464.339C324.472 464.533 320.316 468.882 331.747 456.46C337.213 450.437 339.706 446.577 345.809 442.695C347.722 430.591 338.943 427.392 335.414 417.611C335.584 418.09 333.626 418.875 327.284 422.2L327.648 421.995Z" fill="#212D4C"/>
<path d="M397.638 231.247C397.444 238.534 396.795 245.809 396.055 253.051C395.554 257.97 395.862 263.754 392.97 267.83C384.134 280.297 303.92 264.562 303.92 264.562L303.26 254.349C303.26 254.349 358.436 246.845 365.324 247.415C363.856 239.331 358.072 158.16 363.833 145.761C364.402 144.531 380.24 159.925 382.483 164.833C391.751 185.134 398.23 208.953 397.638 231.247Z" fill="#212D4C"/>
<path d="M396.362 320.967C366.03 326.375 324.335 318.394 318.653 316.196C327.728 326.193 331.838 367.478 332.248 375.426C332.863 387.142 333.421 414.229 333.421 414.229L325.439 416.848C325.439 416.848 272.051 312.78 271.8 294.142C271.709 287.538 270.684 279.328 277.14 275.275C286.602 269.332 300.06 267.51 311.025 267.123C324.95 266.622 435.211 268.432 435.314 268.444C435.701 268.432 436.088 268.432 436.464 268.432C438.092 268.387 435.61 313.965 396.362 320.967Z" fill="#1D212E"/>
<path d="M363.97 171.697C360.577 170.217 354.747 165.286 350.921 161.324C350.454 170.763 336.837 169.112 331.952 165.742C325.599 161.358 317.048 151.156 313.735 147.763C313.165 147.171 313.234 146.295 313.906 145.816C321.602 140.317 329.151 127.77 339.683 127.884C343.623 127.929 346.765 131.516 346.526 135.364C346.287 139.144 345.98 143.368 351.331 143.141C354.326 143.015 357.206 142.401 359.939 141.137C360.349 140.955 360.838 141.137 361.157 141.399C365.666 145.065 369.31 149.619 372.805 154.231C373.283 154.857 373.021 155.483 372.52 155.825C374.092 160.482 373.101 175.693 363.97 171.697Z" fill="#E0AC92"/>
<path d="M362.489 148.106C358.891 148.277 356.557 147.753 352.914 146.318C345.217 143.29 343.953 136.515 344.158 136.105C347.961 128.545 340.184 127.885 335.174 129.684C335.755 130.549 326.567 142.128 322.866 145.248C314.919 151.943 303.385 157.818 293.593 151.294C287.274 147.093 287.046 136.401 291.965 132.667C296.462 129.251 305.093 129.98 310.456 128.351C316.558 126.495 321.546 124.173 326.726 120.461C333.512 115.599 339.319 115.121 346.412 119.55C352.606 123.433 357.593 128.568 362.364 135.991C365.097 140.25 369.139 147.799 362.489 148.106Z" fill="#030744"/>
<path fill-rule="evenodd" clip-rule="evenodd" d="M345.513 422.882L336.746 424.955C334.025 417.406 330.483 411.087 330.757 404.915C333.057 404.995 333.649 404.357 335.972 404.699C339.023 405.075 338.966 406.327 340.093 410.05L345.513 422.882Z" fill="#E0AC92"/>
<path d="M405.346 322.231C375.014 327.639 333.319 319.646 327.637 317.46C336.712 327.457 340.811 368.742 341.232 376.69C341.847 388.417 342.405 415.493 342.405 415.493L333.911 418.123C333.911 418.123 281.023 314.044 280.772 295.405C280.681 288.801 279.657 280.592 286.112 276.539C295.574 270.595 309.032 268.774 319.997 268.386C333.922 267.885 444.183 269.696 444.286 269.719C444.673 269.707 445.06 269.707 445.436 269.696C447.076 269.65 444.593 315.228 405.346 322.231Z" fill="#212D4C"/>
<path fill-rule="evenodd" clip-rule="evenodd" d="M336.108 423.317C338.715 448.514 329.561 443.868 326.214 465.661C332.943 465.855 328.787 470.204 340.207 457.782C345.672 451.759 348.166 447.899 354.269 444.005C356.181 431.902 347.403 428.702 343.873 418.922C344.044 419.4 342.086 420.186 335.744 423.51L336.108 423.317Z" fill="#4E8CFF"/>
<path d="M441.69 290.954C441.519 291.489 435.428 289.417 432.855 288.016C428.425 285.602 423.074 284.919 418.11 285.842C413.168 286.764 406.029 287.754 401.555 284.532C395.52 280.194 385.045 285.238 378.077 285.557C371.598 285.853 364.3 285.329 357.935 283.769C349.976 281.811 342.951 277.461 334.628 277.154C326.441 276.858 317.902 276.881 309.716 277.336C307.609 277.45 286.021 279.272 284.2 276.107C283.3 274.558 300.413 273.807 301.893 272.998C306.459 270.505 313.302 270.357 318.289 269.639C326.168 268.512 334.116 267.613 342.063 267.339C358.55 266.77 375.253 266.155 391.751 266.599C399.494 266.816 405.631 267.772 412.997 269.867C420.159 271.905 427.913 272.372 435.268 273.442C438.206 273.864 442.829 274.638 444.058 277.951C445.732 282.38 443.022 286.707 441.69 290.954Z" fill="#1D212E"/>
<path d="M452.268 277.039C452.484 280.375 447.907 284.053 446.347 282.823C439.492 277.438 435.963 275.138 427.162 275.855C421.423 276.322 412.223 278.918 406.644 276.8C395.531 272.576 399.79 258.492 397.091 249.019C394.529 240.024 391.193 231.302 388.404 222.387C385.933 214.462 383.952 206.39 381.481 198.465C378.908 190.187 375.891 182.081 372.68 174.019C369.913 167.062 367.829 148.344 368.934 148.993C381.048 156.064 396.18 165.503 406.189 175.317C415.559 184.506 425.067 194.024 432.479 204.909C446.631 225.7 450.594 251.603 452.268 277.039Z" fill="#4E8CFF"/>
<path d="M399.562 268.136C401.748 260.394 402.443 228.877 401.794 221.192C401.133 213.415 395.6 188.07 391.649 179.576C391.432 179.098 418.759 220.702 416.595 234.422C413.578 253.528 399.323 268.99 399.562 268.136Z" fill="#212D4C"/>
<path d="M216.057 220.873L266.004 269.07L262.224 272.987L212.278 224.789L216.057 220.873Z" fill="#535353"/>
<path d="M345.069 274.081L265.333 276.107L254.448 265.496L344.784 263.207L345.069 274.081Z" fill="#535353"/>
<path d="M315.488 266.166C313.359 269.491 308.452 267.589 305.446 266.77C300.652 265.472 293.878 268.147 289.961 264.413C289.141 263.627 289.562 261.794 289.733 260.803C290.394 256.909 285.338 261.418 284.564 261.919C283.653 262.511 279.03 265.062 278.973 262.693C278.939 261.282 283.516 257.456 284.94 256.351C288.538 253.573 293.001 251.285 297.544 252.947C300.208 253.926 302.053 256.397 304.888 257.08C308.099 257.854 311.401 257.763 314.657 257.797C314.953 257.797 315.01 257.649 315.044 257.877C315.169 257.9 315.283 257.968 315.363 258.094C316.422 259.642 316.479 264.606 315.488 266.166Z" fill="#EECAAD"/>
<path d="M402.739 234.467C402.545 241.754 401.896 249.03 401.156 256.272C400.655 261.19 400.962 266.974 398.07 271.05C389.235 283.518 309.021 267.783 309.021 267.783L308.361 257.569C308.361 257.569 363.537 250.066 370.425 250.635C368.957 242.551 363.172 161.381 368.934 148.982C369.503 147.752 385.341 163.146 387.584 168.053C396.852 188.343 403.342 212.174 402.739 234.467Z" fill="#4E8CFF"/>
</svg>
