<svg width="522" height="566" viewBox="0 0 522 566" fill="none" xmlns="http://www.w3.org/2000/svg">
<ellipse opacity="0.45" rx="193.232" ry="199.332" transform="matrix(0.810483 0.585762 -0.523694 0.851907 261 283)" fill="#DDEAEF"/>
<path d="M142.448 266.882C109.154 250.011 94.7215 206.914 110.273 170.779C125.833 134.678 165.579 119.03 198.873 135.892C232.151 152.763 246.576 195.895 231.024 231.995C215.488 268.104 175.75 283.744 142.448 266.882ZM154.937 237.908C173.495 247.315 195.659 238.593 204.334 218.462C213.01 198.331 204.966 174.273 186.4 164.875C167.834 155.477 145.678 164.199 137.011 184.338C128.327 204.478 136.371 228.501 154.937 237.908Z" fill="#4E8CFF"/>
<path d="M103.973 187.616C107.515 189.411 111.457 188.379 112.776 185.31L122.147 163.549C123.466 160.489 121.667 156.544 118.125 154.75L111.784 151.542C108.242 149.747 104.3 150.779 102.981 153.848L93.6101 175.592C92.2908 178.661 94.0899 182.614 97.632 184.409L103.973 187.616Z" fill="#4E8CFF"/>
<path d="M154.793 281.076C153.138 284.916 149.5 286.867 146.677 285.436L126.624 275.276C123.794 273.845 122.85 269.571 124.497 265.73L127.464 258.855C129.119 255.015 132.757 253.064 135.579 254.495L155.633 264.655C158.463 266.086 159.415 270.36 157.759 274.201L154.793 281.076Z" fill="#4E8CFF"/>
<path d="M106.707 244.576C103.037 246.024 99.1911 244.61 98.1277 241.437L90.5718 218.87C89.5084 215.688 91.6192 211.934 95.2972 210.487L101.878 207.894C105.556 206.447 109.394 207.851 110.457 211.033L118.013 233.6C119.076 236.782 116.966 240.536 113.288 241.983L106.707 244.576Z" fill="#4E8CFF"/>
<path d="M238.852 190.945C235.174 192.392 231.336 190.988 230.272 187.798L222.725 165.222C221.661 162.04 223.772 158.286 227.442 156.838L234.014 154.246C237.693 152.798 241.53 154.203 242.602 157.384L250.158 179.951C251.221 183.142 249.11 186.896 245.432 188.344L238.852 190.945Z" fill="#4E8CFF"/>
<path d="M176.845 274.329C175.51 270.35 176.805 266.18 179.74 265.026L200.545 256.834C203.479 255.681 206.941 257.969 208.276 261.957L210.667 269.093C212.002 273.072 210.699 277.242 207.773 278.395L186.968 286.588C184.033 287.741 180.571 285.452 179.236 281.464L176.845 274.329Z" fill="#4E8CFF"/>
<path d="M130.254 131.852C128.919 127.864 130.222 123.703 133.149 122.55L153.954 114.357C156.888 113.204 160.35 115.493 161.677 119.481L164.068 126.616C165.403 130.604 164.108 134.765 161.174 135.918L140.369 144.111C137.434 145.264 133.972 142.976 132.637 138.988L130.254 131.852Z" fill="#4E8CFF"/>
<path d="M213.849 143.999C212.194 147.84 208.556 149.791 205.726 148.36L185.673 138.199C182.842 136.769 181.899 132.495 183.546 128.654L186.512 121.779C188.167 117.938 191.797 115.988 194.628 117.418L214.689 127.579C217.519 129.01 218.471 133.284 216.816 137.124L213.849 143.999Z" fill="#4E8CFF"/>
<path d="M229.545 251.26C233.079 253.055 237.021 252.023 238.348 248.954L247.719 227.21C249.038 224.141 247.239 220.205 243.697 218.411L237.357 215.194C233.815 213.4 229.873 214.431 228.561 217.5L219.206 239.253C217.887 242.322 219.686 246.258 223.22 248.052L229.545 251.26Z" fill="#4E8CFF"/>
<path d="M138.994 436.496H119.564V452.379H138.994V436.496Z" fill="#4E8CFF"/>
<path d="M303.808 76.6522L286.092 131.529L294.318 134.652L312.034 79.7744L303.808 76.6522Z" fill="#304659"/>
<path d="M249.259 76.2338L240.613 77.416L247.32 135.095L255.967 133.913L249.259 76.2338Z" fill="#304659"/>
<path d="M303.929 129.635H275.296V146.35H303.929V129.635Z" fill="#100E0E"/>
<path d="M264.206 129.635H235.574V146.35H264.206V129.635Z" fill="#100E0E"/>
<path d="M372.22 301.615H129.279V457.998H372.22V301.615Z" fill="#4E8CFF"/>
<path d="M372.22 458.006H129.279V483.157H372.22V458.006Z" fill="#2E5875"/>
<path d="M336.743 145.092H164.26V157.385H336.743V145.092Z" fill="#2E5875"/>
<path d="M372.22 301.614H129.279L168.418 258.447H333.081L372.22 301.614Z" fill="#497796"/>
<path d="M355.269 318.061H144.814V439.921H355.269V318.061Z" fill="#497796"/>
<path d="M333.073 157.385H168.418V258.456H333.073V157.385Z" fill="#497796"/>
<path d="M322.719 74.5985C322.719 82.3145 316.954 88.5653 309.838 88.5653C302.721 88.5653 296.949 82.3059 296.949 74.5985C296.949 66.8825 302.721 60.623 309.838 60.623C316.954 60.623 322.719 66.8825 322.719 74.5985Z" fill="#6696B6"/>
<path d="M257.058 72.4657C257.058 80.1817 251.285 86.4325 244.169 86.4325C237.053 86.4325 231.288 80.1817 231.288 72.4657C231.288 64.7497 237.053 58.4902 244.169 58.4902C251.285 58.4902 257.058 64.7497 257.058 72.4657Z" fill="#4E8CFF"/>
<path d="M319.872 169.229H180.523V246.371H319.872V169.229Z" fill="white"/>
<path d="M186.28 174.699V241.135H223.42L239.675 174.699H186.28Z" fill="#A3C4DA"/>
<path d="M313.795 174.699H239.675L223.42 241.135H313.795V174.699Z" fill="#6696B6"/>
<path d="M259.369 326.867H157.288V428.58H259.369V326.867Z" fill="#A3C4DA"/>
<path d="M200.776 283.033L195.059 294.763H221.629L224.308 283.033H200.776Z" fill="white"/>
<path d="M205.75 270.93L200.776 281.151H224.308L226.642 270.93H205.75Z" fill="white"/>
<path d="M226.642 269.049L228.497 260.908H209.716L205.75 269.049H226.642Z" fill="white"/>
<path d="M202.999 269.049L206.965 260.908H186.576L179.388 269.049H202.999Z" fill="white"/>
<path d="M170.361 283.033L160.014 294.763H192.309L198.018 283.033H170.361Z" fill="white"/>
<path d="M179.388 270.93L170.361 281.151H198.018L202.999 270.93H179.388Z" fill="white"/>
<path d="M249.958 269.049V260.908H231.248L229.393 269.049H249.958Z" fill="white"/>
<path d="M229.393 270.93L227.058 281.151H249.958V270.93H229.393Z" fill="white"/>
<path d="M227.058 283.033L224.38 294.763H249.958V283.033H227.058Z" fill="white"/>
<path d="M275.736 269.049L273.881 260.908H252.708V269.049H275.736Z" fill="white"/>
<path d="M252.708 283.033V294.763H280.749L278.071 283.033H252.708Z" fill="white"/>
<path d="M252.708 270.93V281.151H278.071L275.736 270.93H252.708Z" fill="white"/>
<path d="M307.047 281.151H332.481L323.27 270.93H302.066L307.047 281.151Z" fill="white"/>
<path d="M323.27 269.049L315.946 260.908H298.1L302.066 269.049H323.27Z" fill="white"/>
<path d="M307.047 283.033L312.756 294.763H342.908V294.607L332.481 283.033H307.047Z" fill="white"/>
<path d="M280.829 283.033L283.508 294.763H310.005L304.289 283.033H280.829Z" fill="white"/>
<path d="M299.315 269.049L295.349 260.908H276.631L278.494 269.049H299.315Z" fill="white"/>
<path d="M278.494 270.93L280.829 281.151H304.288L299.315 270.93H278.494Z" fill="white"/>
<path d="M157.815 66.406C157.576 66.7268 157.615 67.195 157.903 67.4724L165.371 74.6509C165.515 74.7896 165.715 74.8589 165.907 74.8416C166.115 74.8156 166.283 74.7116 166.403 74.5555C169.809 69.9086 174.207 66.432 179.18 64.3687C181.587 63.363 184.121 62.6867 186.752 62.3746C189.238 62.0799 191.717 62.1145 194.14 62.47C199.369 63.2329 204.35 65.487 208.62 69.0849C208.932 69.345 209.372 69.293 209.619 68.9636L215.544 60.9441C215.664 60.7794 215.72 60.58 215.696 60.3633C215.672 60.1552 215.576 59.9731 215.424 59.8431C206.901 52.6126 196.299 49.3355 185.552 50.6272C174.151 51.9797 164.3 57.589 157.815 66.406Z" fill="#6696B6"/>
<path d="M187.064 67.187C185.273 67.4038 183.498 67.8806 181.763 68.5829C177.413 70.3515 173.367 73.5679 170.177 77.9027C169.937 78.2322 169.985 78.7177 170.281 78.9864L176.541 84.587C176.685 84.7171 176.877 84.7778 177.069 84.7604C177.237 84.7344 177.437 84.6304 177.557 84.4743C180.435 80.547 183.202 77.9894 188.071 77.4086C192.757 76.845 196.187 78.8217 199.913 81.9515C200.065 82.0728 200.249 82.1335 200.433 82.1075C200.648 82.0728 200.824 81.9515 200.936 81.7867L205.758 74.4435C205.982 74.1054 205.918 73.6373 205.614 73.3858C201.728 70.0827 197.074 67.9673 192.477 67.2997C190.646 67.0223 188.823 66.979 187.064 67.187Z" fill="#6696B6"/>
<path d="M182.45 89.831C182.866 93.9058 186.264 96.8534 190.014 96.4026C193.772 95.9518 196.491 92.2759 196.075 88.2011C195.659 84.1264 192.269 81.1787 188.511 81.6295C184.753 82.0717 182.034 85.7563 182.45 89.831ZM193.021 88.5652C193.252 90.8194 191.749 92.8481 189.678 93.0995C187.607 93.3509 185.728 91.721 185.505 89.4669C185.273 87.2215 186.776 85.1841 188.855 84.9413C190.926 84.6812 192.797 86.3111 193.021 88.5652Z" fill="#6696B6"/>
<path d="M185.504 89.4586C185.736 91.7127 187.607 93.3339 189.678 93.0912C191.757 92.8397 193.252 90.811 193.02 88.5569C192.789 86.3115 190.918 84.6816 188.847 84.9243C186.776 85.1844 185.273 87.2131 185.504 89.4586Z" fill="#064D67"/>
<path d="M259.369 326.867H157.288V428.58H259.369V326.867Z" fill="white"/>
<path d="M163.94 333.5V421.948H183.226L208.836 333.5H163.94Z" fill="#A3C4DA"/>
<path d="M252.708 333.5H208.836L183.226 421.948H252.708V333.5Z" fill="#6696B6"/>
<path d="M341.308 326.668H269.531V375.547H341.308V326.668Z" fill="#A3C4DA"/>
<path d="M319.168 340.35H308.91V370.754H319.168V340.35Z" fill="#4E8CFF"/>
<path d="M333.665 342.432H323.406V370.764H333.665V342.432Z" fill="#1D212E"/>
<path d="M304.248 351.1H293.99V370.754H304.248V351.1Z" fill="#100E0E"/>
<path d="M289.113 333.5H278.854V370.753H289.113V333.5Z" fill="#212D4D"/>
<path d="M341.308 383.561H269.531V428.582H341.308V383.561Z" fill="white"/>
<path d="M277.039 398.879C279.662 404.436 283.508 409.525 288.401 412.88C293.334 416.261 298.396 415.941 303.025 412.256C307.855 408.415 311.716 402.607 318.321 402.832C324.374 403.049 328.755 409.95 332.889 413.895C333.425 414.406 334.224 413.557 333.681 413.036C329.803 409.326 326.493 404.609 321.599 402.399C316.65 400.162 311.573 402.884 307.759 406.291C302.817 410.704 298.564 415.993 291.599 413.27C285.547 410.904 280.829 404.263 277.991 398.263C277.671 397.57 276.711 398.185 277.039 398.879Z" fill="#4E8CFF"/>
<path d="M276.895 388.025C276.895 399.772 276.895 411.528 276.895 423.276C276.895 423.9 277.791 423.9 277.791 423.276C277.791 411.528 277.791 399.772 277.791 388.025C277.791 387.401 276.895 387.401 276.895 388.025Z" fill="#4E8CFF"/>
<path d="M277.335 423.762C296.517 423.762 315.706 423.762 334.888 423.762C335.464 423.762 335.464 422.791 334.888 422.791C315.706 422.791 296.517 422.791 277.335 422.791C276.759 422.791 276.759 423.762 277.335 423.762Z" fill="#4E8CFF"/>
<path d="M296.237 265.035C296.173 264.957 296.093 264.914 296.005 264.905C295.973 264.749 295.941 264.853 295.733 264.871C293.454 265.035 291.136 265.287 288.857 264.949C286.842 264.645 285.443 263.067 283.532 262.556C280.277 261.68 277.255 263.492 274.856 265.59C273.913 266.414 270.874 269.283 270.962 270.246C271.106 271.858 274.233 269.856 274.84 269.396C275.36 269.006 278.702 265.651 278.414 268.338C278.342 269.023 278.127 270.289 278.734 270.783C281.637 273.107 286.266 270.887 289.68 271.503C291.815 271.884 295.341 272.907 296.685 270.514C297.316 269.396 297.052 266.024 296.237 265.035Z" fill="#E0AC92"/>
<path d="M288.753 282.652C288.705 282.557 288.633 282.505 288.545 282.479C288.545 282.323 288.489 282.418 288.281 282.392C286.01 282.106 283.692 281.881 281.517 281.092C279.59 280.39 278.478 278.56 276.687 277.676C273.641 276.167 270.355 277.347 267.644 278.933C266.581 279.557 263.103 281.768 263.023 282.73C262.895 284.343 266.301 282.999 266.981 282.678C267.556 282.401 271.418 279.774 270.667 282.358C270.475 283.016 270.051 284.222 270.563 284.82C273.025 287.681 277.951 286.432 281.197 287.707C283.236 288.513 287.354 286.294 289.081 284.213C289.896 283.233 289.385 283.779 288.753 282.652Z" fill="#E0AC92"/>
<path d="M320.232 257.876C326.94 256.419 331.714 256.333 332.929 255.648C334.424 254.798 348.577 227.471 351.327 222.365C354.278 216.868 360.202 208.06 366.895 210.019C377.017 212.993 376.106 227.445 375.554 234.754C371.852 244.568 356.82 264.283 348.081 268.193C336.191 273.516 292.439 271.981 292.439 271.981L292.391 265.089C292.391 265.098 316.578 258.673 320.232 257.876Z" fill="#1D212E"/>
<path d="M337.918 187.114C337.758 181.8 338.342 175.688 338.342 175.688C338.342 175.688 343.419 172.142 347.777 169.229C353.166 165.631 356.492 168.579 361.522 174.301C364.968 178.228 365.352 194.787 363.129 201.497C363.073 201.679 362.985 201.818 362.881 201.931C366.175 206.188 370.357 210.098 371.9 215.447C373.395 220.631 369.613 225.824 366.079 229.206C365.639 229.63 363.297 235.3 363.185 234.728C360.714 222.053 355.693 211.892 352.535 204.974C345.946 207.982 345.17 203.96 343.108 201.671C340.541 198.844 338.046 191.276 337.918 187.114Z" fill="#EECAAD"/>
<path fill-rule="evenodd" clip-rule="evenodd" d="M366.103 203.43C357.716 193.989 361.53 182.554 357.476 175.722C351.559 179.068 348.137 188.778 356.796 193.859C349.976 194.76 351.391 186.914 350.032 180.82C346.378 179.38 343.06 178.513 338.038 179.424C336.799 173.901 339.837 169.948 342.484 166.523C345.898 162.206 351.255 161.885 356.988 160.004C355.469 154.377 367.558 146.106 385.213 164.876C390.706 170.719 388.235 185.519 392.745 187.4C403.923 192.073 420.826 217.44 417.06 227.844C414.461 235.031 406.401 241.238 399.509 239.791C396.679 239.201 388.347 233.02 385.701 220.683C384.885 216.894 389.483 210.019 384.533 205.181C379.976 200.725 376.018 197.561 377.097 188.995C379.048 173.494 362.081 160.619 361.154 161.876C372.292 171.058 372.947 179.849 365.064 196.928L366.103 203.43Z" fill="#1D212E"/>
<path fill-rule="evenodd" clip-rule="evenodd" d="M324.646 479.351C317.777 479.993 324.662 481.701 318.097 479.213L319.984 452.744L327.804 455.102L324.646 479.351Z" fill="#EECAAD"/>
<path fill-rule="evenodd" clip-rule="evenodd" d="M303.289 493.759C301.082 491.644 302.17 488.514 302.17 488.514C304.592 483.971 314.035 485.133 315.051 483.971C318.185 480.295 317.561 478.874 318.553 472.883C318.553 472.883 320.608 473.672 325.493 472.883C326.229 476.975 331.546 488.323 325.885 492.234C321.959 494.93 304.504 494.93 303.289 493.759Z" fill="#1D212E"/>
<path fill-rule="evenodd" clip-rule="evenodd" d="M398.606 483.469L395.208 467.881L401.612 466.658L409.704 478.111C409.704 478.111 401.044 483.122 398.606 483.469Z" fill="#E2AE9C"/>
<path fill-rule="evenodd" clip-rule="evenodd" d="M382.55 487.666C382.79 484.883 392.433 484.961 394.224 483.158C395.823 481.554 395.935 471.159 395.935 471.159L402.388 467.873C402.388 467.873 409.896 474.878 410.535 477.314C412.446 484.553 400.173 493.214 400.173 493.214C400.173 493.214 392.905 494.688 388.163 494.454C386.396 494.376 382.294 490.57 382.55 487.666Z" fill="#1D212E"/>
<path d="M399.126 303.815C409.112 310.638 397.542 362.361 388.835 381.113C388.491 381.859 388.507 382.578 389.059 383.385C402.772 403.576 401.62 466.648 401.62 466.648L395.216 467.871C395.216 467.871 379.288 424.514 366.071 391.066C363.697 385.058 348.96 315.735 357.612 311.427C367.67 306.424 391.658 296.437 399.126 303.815Z" fill="#1D212E"/>
<path d="M309.462 380.777C312.02 370.104 324.67 352.687 331.218 343.835C344.547 325.837 389.427 288.679 389.619 288.852C407.529 304.267 404.866 322.967 395.168 340.671C384.709 359.761 350.208 374.985 333.313 383.984C333.153 384.071 332.569 384.444 332.849 384.591C340.365 388.527 325.781 470.664 325.781 470.664L318.697 470.837C318.697 470.837 307.095 390.643 309.462 380.777Z" fill="#212D4D"/>
<path d="M355.885 217.415C358.587 208.512 368.518 208.303 372.508 213.332C380.815 223.831 400.029 300.947 402.228 309.288C402.34 309.712 391.25 316.926 384.813 316.388C366.655 314.853 352.654 320.801 352.654 320.801C352.654 320.801 345.242 295.98 355.885 217.415Z" fill="#304659"/>
<path d="M357.06 264.966C360.29 258.854 367.087 241.992 367.087 242.321C367.111 253.843 362.905 269.995 359.011 280.52C358.363 282.288 353.438 304.769 350.975 301.795C349.024 299.437 349.048 291.001 348.88 287.984C348.657 283.979 348.121 281.785 348.121 281.785C348.121 281.785 353.446 271.798 357.06 264.966Z" fill="#1D212E"/>
<path d="M312.244 272.405C319.456 271.269 330.626 268.868 331.954 268.209C333.585 267.402 341.932 249.517 344.907 242.408C348.976 232.689 353.318 224.401 355.893 217.439C358.539 210.278 360.554 226.907 365.511 228.684C376.106 232.472 375.218 241.801 374.243 249.526C369.789 259.721 351.023 282.349 341.532 285.964C328.619 290.88 281.885 287.854 281.885 287.854C281.885 287.854 283.716 286.909 284.027 284.3C284.283 282.124 283.108 281.577 283.108 281.577C283.108 281.577 308.318 273.02 312.244 272.405Z" fill="#304659"/>
</svg>
